<?xml version="1.0" encoding="utf-8"?>
<!-- Generator: Adobe Illustrator 21.0.0, SVG Export Plug-In . SVG Version: 6.00 Build 0)  -->
<svg version="1.1" id="Layer_1" xmlns="http://www.w3.org/2000/svg" xmlns:xlink="http://www.w3.org/1999/xlink" x="0px" y="0px"
	 viewBox="0 0 40 39.2" style="enable-background:new 0 0 40 39.2;" xml:space="preserve">
<style type="text/css">
	.st0{fill:#FFFFFF;}
</style>
<g>
	<path class="st0" d="M26.4,4.9c0-0.7-0.1-1.4-0.1-2c-2-0.7-4.1-1.2-6.3-1.2s-4.3,0.4-6.3,1.2c-0.1,0.7-0.1,1.3-0.1,2
		c0,4.9,2.6,9.2,6.4,11.6C23.9,14.1,26.4,9.9,26.4,4.9z"/>
</g>
<g>
	<g>
		<path class="st0" d="M2.9,14.6c1.2,1.2,2.6,2.2,4.1,2.9c-0.7-2.2-1.1-4.5-1.1-6.8C5.9,10.1,6,9.3,6,8.6
			C4.6,10.4,3.6,12.4,2.9,14.6z"/>
	</g>
	<g>
		<path class="st0" d="M37.1,14.6c-0.7-2.2-1.7-4.3-3.1-6c0.1,0.7,0.1,1.4,0.1,2.1c0,2.4-0.4,4.7-1.1,6.8
			C34.5,16.8,35.9,15.8,37.1,14.6z"/>
	</g>
	<g>
		<path class="st0" d="M17.4,29.6c-4.1-2.2-7.4-5.6-9.5-9.8c-2-0.7-4-1.7-5.6-3.2c-0.2,0.9-0.2,1.9-0.2,3c0,3.1,0.8,6.1,2.2,8.6
			c2.5,1.2,5.4,1.9,8.4,1.9C14.4,30.1,15.9,30,17.4,29.6z"/>
	</g>
	<g>
		<path class="st0" d="M35.6,28.2c1.4-2.5,2.2-5.5,2.2-8.6c0-1-0.1-2-0.2-3c-1.6,1.4-3.5,2.5-5.6,3.2c-2,4.2-5.3,7.6-9.5,9.8
			c1.5,0.4,3,0.6,4.6,0.6C30.2,30.1,33,29.5,35.6,28.2z"/>
	</g>
	<g>
		<path class="st0" d="M27.2,31.9c-2.5,0-4.9-0.4-7.2-1.2c-2.2,0.8-4.7,1.2-7.2,1.2c-2.3,0-4.5-0.4-6.6-1.1c3.3,4,8.2,6.6,13.8,6.6
			s10.5-2.5,13.8-6.6C31.7,31.6,29.5,31.9,27.2,31.9z"/>
	</g>
</g>
<g>
	<g>
		<path class="st0" d="M12.7,18.7c1.9,0,3.8-0.4,5.5-1.1c-3.9-2.8-6.4-7.4-6.4-12.6c0-0.4,0-0.7,0.1-1.1c-1.2,0.7-2.4,1.5-3.5,2.4
			C8,7.7,7.8,9.2,7.8,10.7c0,2.7,0.6,5.3,1.5,7.6C10.4,18.6,11.5,18.7,12.7,18.7z"/>
	</g>
	<g>
		<path class="st0" d="M28.3,4.9c0,5.2-2.5,9.8-6.4,12.6c1.7,0.7,3.5,1.1,5.5,1.1c1.2,0,2.3-0.1,3.4-0.4c1-2.3,1.5-4.9,1.5-7.6
			c0-1.5-0.2-3-0.5-4.5c-1.1-0.9-2.2-1.7-3.5-2.4C28.3,4.2,28.3,4.6,28.3,4.9z"/>
	</g>
	<g>
		<path class="st0" d="M29.6,20.4c-0.7,0.1-1.5,0.2-2.3,0.2c-2.7,0-5.1-0.7-7.3-1.9c-2.2,1.2-4.7,1.9-7.3,1.9
			c-0.8,0-1.5-0.1-2.3-0.2c2.2,3.8,5.6,6.7,9.6,8.3C24.1,27.1,27.5,24.1,29.6,20.4z"/>
	</g>
</g>
</svg>
