<?xml version="1.0" encoding="utf-8"?>
<!-- Generator: Adobe Illustrator 21.0.0, SVG Export Plug-In . SVG Version: 6.00 Build 0)  -->
<svg version="1.1" id="Layer_1" xmlns="http://www.w3.org/2000/svg" xmlns:xlink="http://www.w3.org/1999/xlink" x="0px" y="0px"
	 viewBox="0 0 200 200" style="enable-background:new 0 0 200 200;" xml:space="preserve">
<style type="text/css">
	.st0{fill:#FFFFFF;}
</style>
<g>
	<path class="st0" d="M100.9,0c13.7,0,26.7,2.6,38.9,7.8s22.8,12.4,31.8,21.4S187.8,48.8,193,61s7.8,25.2,7.8,38.9
		s-2.6,26.7-7.8,38.8c-5.2,12.1-12.4,22.7-21.4,31.8S152,186.8,139.8,192s-25.2,7.8-38.9,7.8s-26.7-2.6-38.8-7.8
		s-22.7-12.4-31.8-21.5S14,150.8,8.8,138.7S1,113.7,1,99.9C1,86.2,3.6,73.2,8.8,61C14,48.9,21.2,38.3,30.3,29.2
		C39.4,20.2,50,13,62.1,7.8C74.3,2.6,87.2,0,100.9,0z M124.3,82.2h-16V72c0-2,0.5-3.4,1.5-4s2-0.9,3.1-0.9H124V49.8h-15.4
		c-4.3,0-7.8,0.7-10.6,2.2c-2.8,1.4-4.9,3.2-6.5,5.4c-1.5,2.2-2.6,4.4-3.1,6.8s-0.8,4.6-0.8,6.6v11.4h-9.8V100h9.8v49.8h20.6V100
		h14.2L124.3,82.2z"/>
</g>
</svg>
