<?xml version="1.0" encoding="utf-8"?>
<!-- Generator: Adobe Illustrator 21.0.0, SVG Export Plug-In . SVG Version: 6.00 Build 0)  -->
<svg version="1.1" id="Layer_1" xmlns="http://www.w3.org/2000/svg" xmlns:xlink="http://www.w3.org/1999/xlink" x="0px" y="0px"
	 viewBox="0 0 200 200" style="enable-background:new 0 0 200 200;" xml:space="preserve">
<style type="text/css">
	.st0{fill:#515154;}
</style>
<path class="st0" d="M191.3,62.8c-5.1-12-12.2-22.4-21.1-31.2s-19.3-15.9-31.4-21C126.9,5.6,114,3,100.5,3s-26.4,2.6-38.3,7.7
	c-12,5.1-22.4,12.2-31.5,21C21.8,40.6,14.6,51,9.5,62.8c-5,12-7.7,24.7-7.7,38.2s2.6,26.2,7.7,38.1c5.1,11.9,12.2,22.3,21.2,31.2
	s19.4,16,31.4,21.1c11.9,5.1,24.8,7.7,38.3,7.7s26.4-2.6,38.4-7.7c12-5.1,22.5-12.2,31.4-21.1c8.9-8.9,16-19.3,21.1-31.2
	s7.7-24.6,7.7-38.1C199,87.6,196.5,74.8,191.3,62.8z M147.8,69.9l-47.4,40L53,69.9H147.8z M49.6,72.3l35.5,30L49.6,130V72.3z
	 M53.4,132.1l34.8-27.2l12.1,10.3l12.1-10.3l34.8,27.2H53.4z M151.3,129.9l-35.5-27.7l35.5-30V129.9z"/>
</svg>
