<?xml version="1.0" encoding="utf-8"?>
<!-- Generator: Adobe Illustrator 21.0.0, SVG Export Plug-In . SVG Version: 6.00 Build 0)  -->
<svg version="1.1" id="Layer_1" xmlns="http://www.w3.org/2000/svg" xmlns:xlink="http://www.w3.org/1999/xlink" x="0px" y="0px"
	 viewBox="0 0 154.9 112.6" style="enable-background:new 0 0 154.9 112.6;" xml:space="preserve">
<style type="text/css">
	.st0{fill:#54BF97;}
	.st1{fill:#0190BE;}
	.st2{fill:#2FC0CE;}
	.st3{fill:#515154;}
	.st4{fill:#515154;stroke:#515154;stroke-width:0.15;stroke-miterlimit:10;}
</style>
<path class="st0" d="M87.5,10.1c0-1.1-0.1-2.1-0.2-3.2c-3.1-1.2-6.5-1.8-10-1.8c-3.5,0-6.9,0.7-10,1.8C67,8,67,9.1,67,10.1
	c0,7.8,4.1,14.7,10.3,18.5C83.4,24.8,87.5,17.9,87.5,10.1z"/>
<g>
	<path class="st1" d="M50,25.5c1.9,1.9,4.1,3.5,6.6,4.6c-1.2-3.4-1.8-7-1.8-10.8c0-1.1,0.1-2.2,0.2-3.3C52.7,18.7,51,22,50,25.5z"/>
	<path class="st1" d="M104.4,25.5c-1-3.5-2.7-6.8-4.9-9.6c0.1,1.1,0.2,2.2,0.2,3.3c0,3.8-0.6,7.4-1.8,10.8
		C100.3,29,102.5,27.4,104.4,25.5z"/>
	<path class="st1" d="M73.1,49.3c-6.5-3.4-11.8-8.9-15-15.5c-3.3-1-6.3-2.8-8.8-5c-0.3,1.5-0.4,3.1-0.4,4.7c0,5,1.3,9.6,3.5,13.7
		c4.1,2,8.6,3,13.4,3C68.3,50.2,70.7,49.9,73.1,49.3z"/>
	<path class="st1" d="M102,47.1c2.2-4.1,3.5-8.7,3.5-13.7c0-1.6-0.1-3.2-0.4-4.7c-2.5,2.2-5.5,3.9-8.8,5c-3.2,6.7-8.5,12.1-15,15.5
		c2.4,0.6,4.8,0.9,7.3,0.9C93.5,50.2,98,49.1,102,47.1z"/>
	<path class="st1" d="M88.7,53.1c-4,0-7.9-0.7-11.5-2c-3.6,1.3-7.4,2-11.5,2c-3.7,0-7.2-0.6-10.5-1.7c5.2,6.3,13.1,10.4,21.9,10.4
		s16.7-4,21.9-10.4C95.8,52.5,92.3,53.1,88.7,53.1z"/>
</g>
<g>
	<path class="st2" d="M65.6,32c3.1,0,6-0.6,8.7-1.8C68.1,25.7,64,18.4,64,10.1c0-0.6,0-1.2,0.1-1.8c-2,1-3.9,2.3-5.6,3.8
		c-0.5,2.3-0.8,4.6-0.8,7.1c0,4.3,0.9,8.4,2.5,12.1C61.9,31.8,63.7,32,65.6,32z"/>
	<path class="st2" d="M90.4,10.1c0,8.2-4,15.6-10.3,20.1c2.7,1.2,5.6,1.8,8.7,1.8c1.9,0,3.7-0.2,5.4-0.7c1.6-3.7,2.5-7.8,2.5-12.1
		c0-2.4-0.3-4.8-0.8-7.1c-1.7-1.5-3.6-2.8-5.6-3.8C90.4,8.9,90.4,9.5,90.4,10.1z"/>
	<path class="st2" d="M92.6,34.7c-1.2,0.2-2.5,0.3-3.7,0.3c-4.2,0-8.2-1.1-11.6-2.9c-3.5,1.9-7.4,2.9-11.6,2.9
		c-1.3,0-2.5-0.1-3.7-0.3c3.5,6,8.9,10.7,15.4,13.3C83.7,45.4,89.1,40.7,92.6,34.7z"/>
</g>
<path class="st3" d="M17.9,74c-1.6-1.1-3.4-1.6-5.3-1.6c-1.9,0-3.4,0.6-4.5,1.8c-1.1,1.2-1.6,2.7-1.6,4.6c0,1.9,0.5,3.4,1.6,4.6
	c1.1,1.2,2.6,1.8,4.5,1.8c1.9,0,3.7-0.5,5.3-1.6H18v2.1c-1.7,1-3.5,1.5-5.5,1.5c-2.4,0-4.3-0.8-5.9-2.3c-1.5-1.5-2.3-3.6-2.3-6.1
	c0-2.6,0.8-4.6,2.3-6.1c1.5-1.5,3.5-2.3,5.9-2.3c2,0,3.9,0.5,5.5,1.5V74H17.9z"/>
<path class="st3" d="M20.5,80.9c0-1.9,0.5-3.4,1.6-4.5c1.1-1.1,2.5-1.7,4.3-1.7c1.8,0,3.3,0.6,4.4,1.7c1.1,1.1,1.6,2.6,1.6,4.5
	c0,1.9-0.5,3.4-1.6,4.5c-1.1,1.1-2.6,1.7-4.4,1.7c-1.8,0-3.2-0.6-4.3-1.7C21,84.3,20.5,82.8,20.5,80.9z M23.7,84.1
	c0.8,0.7,1.7,1.1,2.7,1.1c1,0,1.9-0.4,2.7-1.1c0.8-0.7,1.2-1.8,1.2-3.2c0-1.4-0.4-2.5-1.2-3.2c-0.8-0.7-1.7-1.1-2.7-1.1
	c-1,0-1.9,0.4-2.7,1.1c-0.8,0.7-1.2,1.8-1.2,3.2C22.6,82.3,23,83.4,23.7,84.1z"/>
<path class="st3" d="M41.9,74.7c1.3,0,2.3,0.4,3.1,1.3c0.7,0.9,1.1,2,1.1,3.3v7.6h-2.1v-7.3c0-1.9-0.9-2.9-2.6-2.9
	c-1.4,0-2.6,0.7-3.8,2.2v8h-2.1V75h1.9l0.3,1.5v0.4h0C38.8,75.4,40.3,74.7,41.9,74.7z"/>
<path class="st3" d="M55.9,76.8h-3.4v7.1c0,0.7,0.2,1.1,0.5,1.2c0.3,0.1,0.7,0.2,1.1,0.2c0.5,0,1-0.1,1.5-0.4h0.2v1.7
	c-0.7,0.3-1.4,0.5-2.1,0.5c-2.3,0-3.4-1-3.4-3.1v-7.3h-2.2v-0.1l4.4-4.3V75h3.4V76.8z"/>
<path class="st3" d="M69.1,80.9v0.7h-9c0.1,1.1,0.5,1.9,1.2,2.5s1.7,0.9,3.1,0.9c1.4,0,2.7-0.4,3.9-1.2h0.1V86
	c-1.3,0.7-2.9,1.1-4.6,1.1c-1.8,0-3.2-0.5-4.3-1.6c-1.1-1.1-1.6-2.5-1.6-4.4s0.5-3.4,1.4-4.6c1-1.2,2.3-1.8,4.2-1.8
	c1.8,0,3.2,0.6,4.2,1.8C68.6,77.7,69.1,79.2,69.1,80.9z M60.1,79.9H67c-0.1-1.1-0.4-2-1.1-2.6c-0.7-0.6-1.5-0.9-2.3-0.9
	s-1.6,0.3-2.3,0.9C60.5,78,60.1,78.8,60.1,79.9z"/>
<path class="st3" d="M78.4,74.7c1.3,0,2.3,0.4,3.1,1.3c0.7,0.9,1.1,2,1.1,3.3v7.6h-2.1v-7.3c0-1.9-0.9-2.9-2.6-2.9
	c-1.4,0-2.6,0.7-3.8,2.2v8H72V75h1.9l0.3,1.5v0.4h0C75.4,75.4,76.8,74.7,78.4,74.7z"/>
<path class="st3" d="M92.5,76.8h-3.4v7.1c0,0.7,0.2,1.1,0.5,1.2c0.3,0.1,0.7,0.2,1.1,0.2c0.5,0,1-0.1,1.5-0.4h0.2v1.7
	c-0.7,0.3-1.4,0.5-2.1,0.5c-2.3,0-3.4-1-3.4-3.1v-7.3h-2.2v-0.1l4.4-4.3V75h3.4V76.8z"/>
<path class="st3" d="M109.2,74.7c1.3,0,2.2,0.5,2.9,1.4c0.7,0.9,1,1.9,1,3.1v7.7H111v-7.3c0-1-0.2-1.8-0.5-2.2
	c-0.4-0.5-1-0.7-1.8-0.7c-1.3,0-2.5,0.7-3.4,2.2v8h-2.1v-7.3c0-1-0.2-1.8-0.5-2.2c-0.4-0.5-1-0.7-1.8-0.7c-1.3,0-2.5,0.7-3.4,2.2v8
	h-2.1V75h1.9l0.3,1.5v0.4h0c1-1.4,2.3-2.1,3.9-2.1c0.9,0,1.6,0.2,2.2,0.7c0.6,0.5,1.1,1,1.3,1.7h0.1
	C105.9,75.5,107.3,74.7,109.2,74.7z"/>
<path class="st3" d="M127.2,80.9v0.7h-9c0.1,1.1,0.5,1.9,1.2,2.5s1.7,0.9,3.1,0.9c1.4,0,2.7-0.4,3.9-1.2h0.1V86
	c-1.3,0.7-2.9,1.1-4.6,1.1c-1.8,0-3.2-0.5-4.3-1.6c-1.1-1.1-1.6-2.5-1.6-4.4s0.5-3.4,1.4-4.6c1-1.2,2.3-1.8,4.2-1.8s3.2,0.6,4.2,1.8
	C126.7,77.7,127.2,79.2,127.2,80.9z M118.1,79.9h6.9c-0.1-1.1-0.4-2-1.1-2.6c-0.7-0.6-1.5-0.9-2.3-0.9c-0.9,0-1.6,0.3-2.3,0.9
	C118.6,78,118.2,78.8,118.1,79.9z"/>
<path class="st3" d="M136.5,74.7c1.3,0,2.3,0.4,3.1,1.3c0.7,0.9,1.1,2,1.1,3.3v7.6h-2.1v-7.3c0-1.9-0.9-2.9-2.6-2.9
	c-1.4,0-2.6,0.7-3.8,2.2v8H130V75h1.9l0.3,1.5v0.4h0C133.5,75.4,134.9,74.7,136.5,74.7z"/>
<path class="st3" d="M150.6,76.8h-3.4v7.1c0,0.7,0.2,1.1,0.5,1.2c0.3,0.1,0.7,0.2,1.1,0.2c0.5,0,1-0.1,1.5-0.4h0.2v1.7
	c-0.7,0.3-1.4,0.5-2.1,0.5c-2.3,0-3.4-1-3.4-3.1v-7.3h-2.2v-0.1l4.4-4.3V75h3.4V76.8z"/>
<path class="st3" d="M31.7,95h8.3v1.5h-6.7v3.9h6.1v1.5h-6.1v5.4h-1.6V95z"/>
<path class="st3" d="M41.5,102.8c0-1.4,0.4-2.5,1.2-3.4c0.8-0.9,1.9-1.3,3.3-1.3c1.4,0,2.4,0.4,3.3,1.3c0.8,0.9,1.2,2,1.2,3.4
	c0,1.4-0.4,2.5-1.2,3.4c-0.8,0.9-1.9,1.3-3.3,1.3c-1.4,0-2.4-0.4-3.3-1.3C41.9,105.3,41.5,104.2,41.5,102.8z M44,105.2
	c0.6,0.5,1.3,0.8,2,0.8s1.4-0.3,2-0.8c0.6-0.5,0.9-1.3,0.9-2.4c0-1.1-0.3-1.9-0.9-2.4s-1.3-0.8-2-0.8s-1.4,0.3-2,0.8
	s-0.9,1.3-0.9,2.4C43.1,103.9,43.4,104.7,44,105.2z"/>
<path class="st3" d="M55.8,107.5c-1,0-1.7-0.3-2.3-1c-0.6-0.7-0.8-1.5-0.8-2.5v-5.7h1.6v5.5c0,1.4,0.6,2.1,1.9,2.1
	c1,0,2-0.6,2.9-1.7v-6h1.6v8.9h-1.4l-0.2-1.1v-0.3h0C58.1,106.9,57,107.5,55.8,107.5z"/>
<path class="st3" d="M68.3,98.2c1,0,1.7,0.3,2.3,1c0.6,0.7,0.8,1.5,0.8,2.5v5.7h-1.6v-5.5c0-1.4-0.6-2.1-1.9-2.1c-1,0-2,0.6-2.9,1.7
	v6h-1.6v-8.9h1.4l0.2,1.1v0.3h0C66,98.7,67.1,98.2,68.3,98.2z"/>
<path class="st3" d="M74.8,99.4c0.8-0.8,1.8-1.3,3-1.3s2.1,0.4,2.9,1.3h0.1v-5h1.6v12.8H81l-0.2-1.1h-0.1c-0.8,0.9-1.8,1.3-2.9,1.3
	s-2.1-0.4-3-1.3c-0.8-0.8-1.3-2-1.3-3.4C73.5,101.4,74,100.3,74.8,99.4z M78,106c1.1,0,2-0.4,2.8-1.3V101c-0.8-0.9-1.7-1.3-2.8-1.3
	c-0.9,0-1.6,0.3-2.1,0.8s-0.8,1.3-0.8,2.3c0,1,0.3,1.8,0.8,2.3S77.2,106,78,106z"/>
<path class="st3" d="M85.3,98.8c1-0.4,2.1-0.7,3.3-0.7c1.2,0,2.1,0.3,2.7,1c0.6,0.7,0.9,1.5,0.9,2.4v5.7h-1.4l-0.2-1.1h-0.1
	c-0.8,0.9-1.9,1.3-3.2,1.3c-0.8,0-1.5-0.2-2-0.7c-0.6-0.5-0.8-1.1-0.8-2c0-0.8,0.3-1.5,1-2c0.7-0.5,1.7-0.8,3-0.8h2.1v-0.1
	c0-0.8-0.2-1.3-0.6-1.7c-0.4-0.3-1-0.5-2-0.5c-0.9,0-1.8,0.2-2.6,0.6h-0.1V98.8z M90.6,104.7v-1.5h-1.9c-1.8,0-2.6,0.5-2.6,1.4
	c0,0.9,0.6,1.4,1.9,1.4c0.5,0,1-0.1,1.5-0.4C89.9,105.4,90.3,105.1,90.6,104.7z"/>
<path class="st3" d="M99.6,99.7h-2.5v5.3c0,0.5,0.1,0.8,0.4,0.9c0.2,0.1,0.5,0.1,0.9,0.1c0.4,0,0.7-0.1,1.2-0.3h0.1v1.3
	c-0.5,0.3-1,0.4-1.6,0.4c-1.7,0-2.6-0.8-2.6-2.3v-5.4h-1.7v-0.1l3.3-3.2v1.9h2.5V99.7z"/>
<path class="st3" d="M103.4,94.7v1.7h-1.7v-1.7H103.4z M101.7,107.3v-8.9h1.6v8.9H101.7z"/>
<path class="st3" d="M105.6,102.8c0-1.4,0.4-2.5,1.2-3.4c0.8-0.9,1.9-1.3,3.3-1.3c1.4,0,2.4,0.4,3.3,1.3c0.8,0.9,1.2,2,1.2,3.4
	c0,1.4-0.4,2.5-1.2,3.4c-0.8,0.9-1.9,1.3-3.3,1.3c-1.4,0-2.4-0.4-3.3-1.3C106,105.3,105.6,104.2,105.6,102.8z M108.1,105.2
	c0.6,0.5,1.3,0.8,2,0.8c0.8,0,1.4-0.3,2-0.8c0.6-0.5,0.9-1.3,0.9-2.4c0-1.1-0.3-1.9-0.9-2.4c-0.6-0.5-1.3-0.8-2-0.8
	c-0.8,0-1.4,0.3-2,0.8c-0.6,0.5-0.9,1.3-0.9,2.4C107.2,103.9,107.5,104.7,108.1,105.2z"/>
<path class="st3" d="M121.7,98.2c1,0,1.7,0.3,2.3,1c0.6,0.7,0.8,1.5,0.8,2.5v5.7h-1.6v-5.5c0-1.4-0.6-2.1-1.9-2.1
	c-1,0-2,0.6-2.9,1.7v6h-1.6v-8.9h1.4l0.2,1.1v0.3h0C119.4,98.7,120.5,98.2,121.7,98.2z"/>
<path class="st4" d="M26.5,64v0.9H24v6.3h-0.9v-6.3h-2.5V64H26.5z"/>
<path class="st4" d="M30.3,65.8c0.6,0,1,0.2,1.3,0.6c0.3,0.4,0.5,0.9,0.5,1.4v3.3h-0.9v-3.2c0-0.8-0.4-1.2-1.1-1.2
	c-0.6,0-1.2,0.3-1.7,1v3.5h-0.9v-7.5h0.9v3.1h0C29,66.1,29.6,65.8,30.3,65.8z"/>
<path class="st4" d="M38.3,68.5v0.3h-4c0.1,0.5,0.2,0.8,0.5,1.1c0.3,0.3,0.8,0.4,1.4,0.4c0.6,0,1.2-0.2,1.7-0.5H38v0.9
	c-0.6,0.3-1.2,0.5-2,0.5c-0.8,0-1.4-0.2-1.9-0.7c-0.5-0.5-0.7-1.1-0.7-1.9c0-0.8,0.2-1.5,0.6-2c0.4-0.5,1-0.8,1.8-0.8
	c0.8,0,1.4,0.3,1.8,0.8C38.1,67.1,38.3,67.8,38.3,68.5z M34.3,68.1h3c0-0.5-0.2-0.9-0.5-1.1c-0.3-0.3-0.6-0.4-1-0.4
	c-0.4,0-0.7,0.1-1,0.4C34.5,67.2,34.4,67.6,34.3,68.1z"/>
<circle class="st0" cx="21.3" cy="101.2" r="1.5"/>
<circle class="st0" cx="133.6" cy="101.2" r="1.5"/>
<circle class="st2" cx="13.6" cy="101.2" r="1.5"/>
<circle class="st2" cx="141.4" cy="101.2" r="1.5"/>
<circle class="st1" cx="5.9" cy="101.2" r="1.5"/>
<circle class="st1" cx="149.1" cy="101.2" r="1.5"/>
</svg>
