<?xml version="1.0" encoding="utf-8"?>
<!-- Generator: Adobe Illustrator 21.0.0, SVG Export Plug-In . SVG Version: 6.00 Build 0)  -->
<svg version="1.1" id="Layer_1" xmlns="http://www.w3.org/2000/svg" xmlns:xlink="http://www.w3.org/1999/xlink" x="0px" y="0px"
	 viewBox="0 0 177 112.6" style="enable-background:new 0 0 177 112.6;" xml:space="preserve">
<style type="text/css">
	.st0{fill:#FFFFFF;}
</style>
<g>
	<path class="st0" d="M97.9,8.3c0-1.1-0.1-2.2-0.2-3.2c-3.2-1.2-6.6-1.9-10.2-1.9s-7,0.7-10.2,1.9c-0.2,1.1-0.2,2.1-0.2,3.2
		c0,7.9,4.2,14.9,10.4,18.8C93.8,23.2,97.9,16.3,97.9,8.3z"/>
</g>
<g>
	<g>
		<path class="st0" d="M59.8,24c1.9,1.9,4.2,3.5,6.7,4.7c-1.2-3.5-1.8-7.2-1.8-11c0-1.1,0.1-2.3,0.2-3.4
			C62.6,17.1,60.9,20.4,59.8,24z"/>
	</g>
	<g>
		<path class="st0" d="M115.2,24c-1.1-3.6-2.8-6.9-5-9.7c0.1,1.1,0.2,2.2,0.2,3.4c0,3.9-0.6,7.6-1.8,11
			C111,27.5,113.2,25.9,115.2,24z"/>
	</g>
	<g>
		<path class="st0" d="M83.3,48.2c-6.6-3.5-12-9-15.3-15.8c-3.3-1.1-6.4-2.8-9-5.1c-0.3,1.5-0.4,3.1-0.4,4.8c0,5,1.3,9.8,3.6,13.9
			c4.1,2,8.7,3.1,13.6,3.1C78.4,49.1,80.9,48.8,83.3,48.2z"/>
	</g>
	<g>
		<path class="st0" d="M112.8,46c2.3-4.1,3.6-8.9,3.6-13.9c0-1.6-0.1-3.2-0.4-4.8c-2.6,2.3-5.6,4-9,5.1c-3.2,6.8-8.6,12.3-15.3,15.8
			c2.4,0.6,4.9,0.9,7.5,0.9C104,49.1,108.6,48,112.8,46z"/>
	</g>
	<g>
		<path class="st0" d="M99.2,52c-4.1,0-8-0.7-11.7-2c-3.6,1.3-7.6,2-11.7,2c-3.7,0-7.3-0.6-10.6-1.7c5.3,6.4,13.3,10.6,22.3,10.6
			s17-4.1,22.3-10.6C106.4,51.4,102.9,52,99.2,52z"/>
	</g>
</g>
<g>
	<g>
		<path class="st0" d="M75.7,30.6c3.1,0,6.1-0.7,8.9-1.8c-6.3-4.6-10.4-12-10.4-20.4c0-0.6,0-1.2,0.1-1.8c-2,1.1-3.9,2.4-5.7,3.9
			c-0.5,2.3-0.8,4.7-0.8,7.2c0,4.4,0.9,8.5,2.5,12.3C71.9,30.4,73.8,30.6,75.7,30.6z"/>
	</g>
	<g>
		<path class="st0" d="M100.9,8.3c0,8.4-4.1,15.8-10.4,20.4c2.7,1.2,5.7,1.8,8.9,1.8c1.9,0,3.7-0.2,5.5-0.7
			c1.6-3.8,2.5-7.9,2.5-12.3c0-2.5-0.3-4.9-0.8-7.2c-1.7-1.5-3.6-2.8-5.7-3.9C100.9,7.1,100.9,7.7,100.9,8.3z"/>
	</g>
	<g>
		<path class="st0" d="M103.1,33.3c-1.2,0.2-2.5,0.3-3.8,0.3c-4.3,0-8.3-1.1-11.8-3c-3.5,1.9-7.6,3-11.8,3c-1.3,0-2.5-0.1-3.8-0.3
			c3.5,6.1,9,10.9,15.6,13.5C94.1,44.2,99.6,39.4,103.1,33.3z"/>
	</g>
</g>
<g>
	<path class="st0" d="M27.2,73.2c-1.6-1.1-3.4-1.6-5.4-1.6s-3.5,0.6-4.6,1.8c-1.1,1.2-1.7,2.8-1.7,4.7s0.6,3.5,1.7,4.7
		s2.6,1.8,4.6,1.8s3.8-0.5,5.4-1.6h0.1v2.1c-1.7,1-3.6,1.5-5.6,1.5c-2.4,0-4.4-0.8-6-2.3s-2.3-3.6-2.3-6.2s0.8-4.7,2.3-6.2
		c1.6-1.5,3.6-2.3,6-2.3c2,0,3.9,0.5,5.6,1.5L27.2,73.2L27.2,73.2z"/>
</g>
<g>
	<path class="st0" d="M29.8,80.3c0-1.9,0.6-3.4,1.7-4.6s2.6-1.7,4.4-1.7s3.3,0.6,4.4,1.7c1.1,1.2,1.7,2.7,1.7,4.6s-0.6,3.4-1.7,4.6
		s-2.6,1.7-4.4,1.7s-3.3-0.6-4.4-1.7C30.3,83.7,29.8,82.2,29.8,80.3z M33.1,83.6c0.8,0.7,1.7,1.1,2.7,1.1s2-0.4,2.7-1.1
		c0.8-0.7,1.2-1.8,1.2-3.3s-0.4-2.5-1.2-3.2c-0.8-0.7-1.7-1.1-2.7-1.1s-2,0.4-2.7,1.1c-0.8,0.7-1.2,1.8-1.2,3.2S32.3,82.9,33.1,83.6
		z"/>
</g>
<g>
	<path class="st0" d="M51.6,74c1.3,0,2.4,0.4,3.1,1.3c0.8,0.9,1.1,2,1.1,3.3v7.7h-2.2v-7.5c0-1.9-0.9-2.9-2.6-2.9
		c-1.4,0-2.7,0.8-3.9,2.3v8.1H45v-12h1.9l0.3,1.5v0.4l0,0C48.5,74.7,49.9,74,51.6,74z"/>
</g>
<g>
	<path class="st0" d="M65.9,76.1h-3.4v7.2c0,0.7,0.2,1.1,0.5,1.2s0.7,0.2,1.2,0.2s1-0.1,1.6-0.4H66v1.8c-0.7,0.3-1.4,0.5-2.1,0.5
		c-2.3,0-3.5-1-3.5-3.1v-7.4H58V76l4.4-4.3v2.6h3.4v1.8H65.9z"/>
</g>
<g>
	<path class="st0" d="M79.3,80.3v0.8h-9.2c0.1,1.1,0.5,2,1.2,2.6s1.8,0.9,3.2,0.9s2.7-0.4,3.9-1.2h0.1v2.1c-1.3,0.7-2.9,1.1-4.7,1.1
		s-3.2-0.6-4.3-1.7s-1.6-2.6-1.6-4.5s0.5-3.4,1.5-4.7c1-1.2,2.4-1.8,4.2-1.8s3.3,0.6,4.2,1.8C78.8,77.1,79.3,78.6,79.3,80.3z
		 M70.1,79.3h7c-0.1-1.1-0.4-2-1.2-2.6c-0.7-0.6-1.5-0.9-2.4-0.9s-1.7,0.3-2.4,0.9C70.5,77.3,70.1,78.2,70.1,79.3z"/>
</g>
<g>
	<path class="st0" d="M88.8,74c1.3,0,2.4,0.4,3.1,1.3c0.8,0.9,1.1,2,1.1,3.3v7.7h-2.2v-7.5c0-1.9-0.9-2.9-2.6-2.9
		c-1.4,0-2.7,0.8-3.9,2.3v8.1h-2.2v-12H84l0.3,1.5v0.4l0,0C85.7,74.7,87.1,74,88.8,74z"/>
</g>
<g>
	<path class="st0" d="M103.1,76.1h-3.4v7.2c0,0.7,0.2,1.1,0.5,1.2s0.7,0.2,1.2,0.2s1-0.1,1.6-0.4h0.2v1.8c-0.7,0.3-1.4,0.5-2.1,0.5
		c-2.3,0-3.5-1-3.5-3.1v-7.4h-2.3V76l4.4-4.3v2.6h3.4L103.1,76.1L103.1,76.1z"/>
</g>
<g>
	<path class="st0" d="M120,74c1.3,0,2.3,0.5,3,1.4s1,2,1,3.2v7.8h-2.2V79c0-1-0.2-1.8-0.6-2.3c-0.4-0.5-1-0.7-1.9-0.7
		c-1.4,0-2.5,0.8-3.4,2.3v8.1h-2.2V79c0-1-0.2-1.8-0.5-2.3c-0.4-0.5-1-0.7-1.9-0.7c-1.4,0-2.5,0.8-3.4,2.3v8.1h-2.2V74.3h1.9
		l0.3,1.5v0.4l0,0c1-1.4,2.3-2.1,4-2.1c0.9,0,1.6,0.2,2.3,0.7c0.6,0.5,1.1,1,1.3,1.7h0.1C116.7,74.8,118.1,74,120,74z"/>
</g>
<g>
	<path class="st0" d="M138.3,80.3v0.8h-9.2c0.1,1.1,0.5,2,1.2,2.6s1.8,0.9,3.2,0.9s2.7-0.4,3.9-1.2h0.1v2.1
		c-1.3,0.7-2.9,1.1-4.7,1.1s-3.2-0.6-4.3-1.7s-1.6-2.6-1.6-4.5s0.5-3.4,1.5-4.7c1-1.2,2.4-1.8,4.2-1.8s3.3,0.6,4.2,1.8
		C137.8,77.1,138.3,78.6,138.3,80.3z M129.1,79.3h7c-0.1-1.1-0.4-2-1.2-2.6c-0.7-0.6-1.5-0.9-2.4-0.9s-1.7,0.3-2.4,0.9
		C129.6,77.3,129.2,78.2,129.1,79.3z"/>
</g>
<g>
	<path class="st0" d="M147.8,74c1.3,0,2.4,0.4,3.1,1.3c0.8,0.9,1.1,2,1.1,3.3v7.7h-2.2v-7.5c0-1.9-0.9-2.9-2.6-2.9
		c-1.4,0-2.7,0.8-3.9,2.3v8.1h-2.2v-12h1.9l0.3,1.5v0.4l0,0C144.7,74.7,146.2,74,147.8,74z"/>
</g>
<g>
	<path class="st0" d="M162.1,76.1h-3.4v7.2c0,0.7,0.2,1.1,0.5,1.2s0.7,0.2,1.2,0.2s1-0.1,1.6-0.4h0.2v1.8c-0.7,0.3-1.4,0.5-2.1,0.5
		c-2.3,0-3.5-1-3.5-3.1v-7.4h-2.3V76l4.4-4.3v2.6h3.4L162.1,76.1L162.1,76.1z"/>
</g>
<g>
	<path class="st0" d="M41.2,94.7h8.4v1.5h-6.8v3.9H49v1.5h-6.2v5.5h-1.6C41.2,107.1,41.2,94.7,41.2,94.7z"/>
</g>
<g>
	<path class="st0" d="M51.2,102.6c0-1.4,0.4-2.6,1.2-3.4c0.8-0.9,1.9-1.3,3.3-1.3c1.4,0,2.5,0.4,3.3,1.3s1.3,2,1.3,3.4
		s-0.4,2.6-1.3,3.4c-0.8,0.9-1.9,1.3-3.3,1.3c-1.4,0-2.5-0.4-3.3-1.3C51.6,105.2,51.2,104,51.2,102.6z M53.7,105
		c0.6,0.5,1.3,0.8,2.1,0.8s1.5-0.3,2.1-0.8s0.9-1.4,0.9-2.4s-0.3-1.9-0.9-2.4s-1.3-0.8-2.1-0.8s-1.5,0.3-2.1,0.8s-0.9,1.3-0.9,2.4
		S53.1,104.5,53.7,105z"/>
</g>
<g>
	<path class="st0" d="M65.7,107.3c-1,0-1.8-0.3-2.3-1c-0.6-0.7-0.9-1.5-0.9-2.5V98h1.6v5.6c0,1.5,0.7,2.2,2,2.2c1,0,2-0.6,2.9-1.7
		V98h1.6v9.1h-1.4L69,106v-0.3l0,0C68,106.8,66.9,107.3,65.7,107.3z"/>
</g>
<g>
	<path class="st0" d="M78.4,97.9c1,0,1.8,0.3,2.3,1c0.6,0.7,0.9,1.5,0.9,2.5v5.8H80v-5.6c0-1.5-0.7-2.2-2-2.2c-1,0-2,0.6-2.9,1.7
		v6.1h-1.6V98h1.4l0.2,1.1v0.3l0,0C76.1,98.4,77.2,97.9,78.4,97.9z"/>
</g>
<g>
	<path class="st0" d="M85.1,99.1c0.9-0.9,1.9-1.3,3-1.3c1.2,0,2.2,0.4,3,1.3h0.1V94h1.6v13h-1.4l-0.2-1.1h-0.1
		c-0.8,0.9-1.8,1.3-3,1.3s-2.2-0.4-3-1.3c-0.9-0.9-1.3-2-1.3-3.4C83.8,101.2,84.2,100,85.1,99.1z M88.3,105.8c1.1,0,2-0.4,2.8-1.3
		v-3.7c-0.8-0.9-1.7-1.3-2.8-1.3c-0.9,0-1.6,0.3-2.1,0.8c-0.5,0.6-0.8,1.3-0.8,2.4s0.3,1.8,0.8,2.4
		C86.7,105.5,87.4,105.8,88.3,105.8z"/>
</g>
<g>
	<path class="st0" d="M95.8,98.5c1-0.5,2.1-0.7,3.3-0.7s2.1,0.3,2.7,1c0.6,0.7,0.9,1.5,0.9,2.5v5.8h-1.4l-0.2-1.1H101
		c-0.9,0.9-2,1.3-3.3,1.3c-0.8,0-1.5-0.2-2.1-0.7s-0.8-1.2-0.8-2s0.3-1.5,1-2.1c0.7-0.5,1.7-0.8,3.1-0.8h2.2v-0.1
		c0-0.8-0.2-1.3-0.6-1.7c-0.4-0.3-1.1-0.5-2-0.5c-1,0-1.8,0.2-2.7,0.6h-0.1v-1.5H95.8z M101.1,104.6v-1.5h-1.9
		c-1.8,0-2.7,0.5-2.7,1.4s0.6,1.4,1.9,1.4c0.5,0,1-0.1,1.5-0.4C100.4,105.3,100.8,104.9,101.1,104.6z"/>
</g>
<g>
	<path class="st0" d="M110.3,99.4h-2.6v5.4c0,0.5,0.1,0.8,0.4,0.9c0.2,0.1,0.5,0.1,0.9,0.1s0.8-0.1,1.2-0.3h0.1v1.3
		c-0.5,0.3-1,0.4-1.6,0.4c-1.7,0-2.6-0.8-2.6-2.4v-5.5h-1.7v-0.1l3.3-3.2v2h2.6L110.3,99.4L110.3,99.4z"/>
</g>
<g>
	<path class="st0" d="M114.1,94.4v1.7h-1.7v-1.7H114.1z M112.4,107.1V98h1.6v9.1H112.4z"/>
</g>
<g>
	<path class="st0" d="M116.4,102.6c0-1.4,0.4-2.6,1.2-3.4c0.8-0.9,1.9-1.3,3.3-1.3c1.4,0,2.5,0.4,3.3,1.3s1.3,2,1.3,3.4
		s-0.4,2.6-1.3,3.4s-1.9,1.3-3.3,1.3c-1.4,0-2.5-0.4-3.3-1.3C116.8,105.2,116.4,104,116.4,102.6z M118.9,105
		c0.6,0.5,1.3,0.8,2.1,0.8s1.5-0.3,2.1-0.8s0.9-1.4,0.9-2.4s-0.3-1.9-0.9-2.4s-1.3-0.8-2.1-0.8s-1.5,0.3-2.1,0.8s-0.9,1.3-0.9,2.4
		S118.3,104.5,118.9,105z"/>
</g>
<g>
	<path class="st0" d="M132.7,97.9c1,0,1.8,0.3,2.3,1c0.6,0.7,0.9,1.5,0.9,2.5v5.8h-1.6v-5.6c0-1.5-0.7-2.2-2-2.2c-1,0-2,0.6-2.9,1.7
		v6.1h-1.6V98h1.4l0.2,1.1v0.3l0,0C130.4,98.4,131.5,97.9,132.7,97.9z"/>
</g>
<g>
	<path class="st0" d="M35.9,63.1V64h-2.5v6.4h-0.9V64H30v-0.9H35.9z"/>
	<path class="st0" d="M33.4,70.4h-1.1V64h-2.5v-1h6.1v1h-2.5V70.4z M32.5,70.3h0.8v-6.4h2.5v-0.8H30v0.8h2.5V70.3z"/>
</g>
<g>
	<path class="st0" d="M39.8,65c0.6,0,1,0.2,1.4,0.6c0.3,0.4,0.5,0.9,0.5,1.5v3.4h-0.9v-3.3c0-0.8-0.4-1.3-1.1-1.3
		c-0.6,0-1.2,0.3-1.7,1v3.5h-0.9v-7.6H38v3.1l0,0C38.4,65.3,39.1,65,39.8,65z"/>
	<path class="st0" d="M41.7,70.4h-1.1v-3.3c0-0.8-0.4-1.2-1.1-1.2c-0.6,0-1.1,0.3-1.7,1v3.6h-1.1v-7.7h1.1v3.1
		c0.6-0.6,1.2-0.9,1.9-0.9c0.6,0,1.1,0.2,1.4,0.6s0.5,0.9,0.5,1.5L41.7,70.4L41.7,70.4z M40.8,70.3h0.8V67c0-0.6-0.2-1-0.5-1.4
		S40.3,65,39.8,65c-0.7,0-1.3,0.3-1.9,0.9l0,0h-0.1v-3.1H37v7.5h0.8v-3.5l0,0c0.5-0.7,1.1-1,1.8-1c0.8,0,1.2,0.4,1.2,1.3V70.3z"/>
</g>
<g>
	<path class="st0" d="M47.9,67.7V68h-4c0.1,0.5,0.2,0.9,0.5,1.1c0.3,0.3,0.8,0.4,1.4,0.4c0.6,0,1.2-0.2,1.7-0.5h0.1v1
		c-0.6,0.3-1.3,0.5-2.1,0.5s-1.4-0.2-1.9-0.7c-0.5-0.5-0.7-1.1-0.7-2c0-0.8,0.2-1.5,0.6-2s1-0.8,1.9-0.8c0.8,0,1.4,0.3,1.9,0.8
		C47.7,66.3,47.9,66.9,47.9,67.7z M43.9,67.3H47c0-0.5-0.2-0.9-0.5-1.1c-0.3-0.3-0.7-0.4-1-0.4c-0.4,0-0.7,0.1-1,0.4
		C44.1,66.4,43.9,66.8,43.9,67.3z"/>
	<path class="st0" d="M45.5,70.5c-0.8,0-1.5-0.2-1.9-0.7c-0.5-0.5-0.7-1.2-0.7-2s0.2-1.5,0.6-2.1c0.4-0.5,1.1-0.8,1.9-0.8
		c0.8,0,1.5,0.3,1.9,0.8s0.6,1.2,0.6,2v0.4h-4c0.1,0.4,0.2,0.8,0.5,1c0.3,0.3,0.7,0.4,1.4,0.4c0.6,0,1.2-0.2,1.7-0.5l0,0h0.1v1l0,0
		C47,70.4,46.3,70.5,45.5,70.5z M45.4,65c-0.8,0-1.4,0.3-1.8,0.8S43,67,43,67.8s0.2,1.4,0.7,1.9c0.5,0.5,1.1,0.7,1.9,0.7
		s1.4-0.2,2-0.5v-0.8c-0.5,0.3-1.1,0.5-1.7,0.5c-0.6,0-1.1-0.1-1.4-0.4c-0.3-0.3-0.5-0.7-0.6-1.2v-0.1h4v-0.3c0-0.8-0.2-1.4-0.6-1.9
		C46.8,65.3,46.2,65,45.4,65z M47,67.3h-3.2v-0.1c0-0.5,0.2-0.9,0.5-1.2c0.3-0.3,0.7-0.4,1.1-0.4c0.4,0,0.8,0.1,1.1,0.4
		C46.8,66.4,47,66.8,47,67.3L47,67.3z M44,67.2h3c0-0.5-0.2-0.8-0.5-1s-0.6-0.4-1-0.4s-0.7,0.1-1,0.4C44.1,66.4,44,66.8,44,67.2z"/>
</g>
<g>
	<circle class="st0" cx="30.7" cy="100.9" r="1.5"/>
</g>
<g>
	<circle class="st0" cx="144.9" cy="100.9" r="1.5"/>
</g>
<g>
	<circle class="st0" cx="22.8" cy="100.9" r="1.5"/>
</g>
<g>
	<circle class="st0" cx="152.8" cy="100.9" r="1.5"/>
</g>
<g>
	<circle class="st0" cx="14.9" cy="100.9" r="1.5"/>
</g>
<g>
	<circle class="st0" cx="160.6" cy="100.9" r="1.5"/>
</g>
</svg>
