<?xml version="1.0" encoding="utf-8"?>
<!-- Generator: Adobe Illustrator 21.0.0, SVG Export Plug-In . SVG Version: 6.00 Build 0)  -->
<svg version="1.1" id="Layer_1" xmlns="http://www.w3.org/2000/svg" xmlns:xlink="http://www.w3.org/1999/xlink" x="0px" y="0px"
	 viewBox="0 0 166.5 23.7" style="enable-background:new 0 0 166.5 23.7;" xml:space="preserve">
<style type="text/css">
	.st0{fill:#0190BE;}
</style>
<path class="st0" d="M82.5,17.4c-0.4,0.4-0.8,0.8-1.2,1.2c-0.6,0.6-1.1,1.1-1.7,1.7c-0.1,0.1-0.3,0.2-0.4,0.3
	c-0.4,0.2-0.8,0.1-1-0.3c-0.1-0.2-0.2-0.4-0.2-0.5c-0.7-2.1-1.3-4.2-2-6.3c-0.1-0.2-0.2-0.3-0.3-0.3c-1.7-0.6-3.4-1.1-5.2-1.7
	c-0.3-0.1-0.5-0.2-0.7-0.4c-0.4-0.3-0.4-0.6,0-0.9c0.2-0.2,0.5-0.3,0.7-0.4C77.6,7.1,84.8,4.3,92,1.5c0.2-0.1,0.5-0.2,0.7-0.2
	c0.7,0,1.1,0.4,1.1,1c0,0.4-0.1,0.8-0.2,1.2c-0.8,3.7-1.5,7.4-2.3,11.1c-0.4,2-0.8,3.9-1.2,5.9c-0.3,1.3-1.3,1.7-2.3,0.9
	C86,20.1,84.3,18.8,82.5,17.4C82.6,17.5,82.6,17.4,82.5,17.4z M78.7,19C78.7,19,78.8,19,78.7,19c0.1-0.1,0.1-0.2,0.2-0.2
	c0-0.2,0.1-0.3,0.1-0.5c0.1-1,0.2-1.9,0.3-2.9c0-0.3,0.2-0.6,0.4-0.8c3-2.8,5.9-5.5,8.9-8.3C88.8,6,89,5.7,89.3,5.4
	c0.1-0.1,0.1-0.2,0.1-0.3c-0.1,0-0.2,0-0.3,0c-0.4,0.2-0.7,0.3-1,0.5c-3.7,2.4-7.5,4.8-11.2,7.2c-0.1,0.1-0.1,0.1-0.1,0.3
	c0.4,1.2,0.8,2.3,1.1,3.5c0.2,0.7,0.5,1.4,0.7,2.2C78.6,18.8,78.7,18.9,78.7,19z"/>
<circle class="st0" cx="117.3" cy="12.2" r="2.2"/>
<circle class="st0" cx="139" cy="12.2" r="2.2"/>
<circle class="st0" cx="160.7" cy="12.2" r="2.2"/>
<circle class="st0" cx="3.7" cy="12.2" r="2.2"/>
<circle class="st0" cx="25.4" cy="12.2" r="2.2"/>
<circle class="st0" cx="47" cy="12.2" r="2.2"/>
</svg>
