<?xml version="1.0" encoding="utf-8"?>
<!-- Generator: Adobe Illustrator 21.0.0, SVG Export Plug-In . SVG Version: 6.00 Build 0)  -->
<svg version="1.1" id="Layer_1" xmlns="http://www.w3.org/2000/svg" xmlns:xlink="http://www.w3.org/1999/xlink" x="0px" y="0px"
	 viewBox="0 0 51.8 44" style="enable-background:new 0 0 51.8 44;" xml:space="preserve">
<style type="text/css">
	.st0{fill:#FFFFFF;}
</style>
<path class="st0" d="M27,32.7c-0.8,0.8-1.6,1.5-2.4,2.3c-1.1,1.1-2.2,2.2-3.3,3.3c-0.2,0.2-0.5,0.5-0.8,0.6
	c-0.7,0.4-1.5,0.2-1.9-0.5c-0.2-0.3-0.4-0.7-0.5-1.1c-1.3-4-2.6-8-3.9-12.1c-0.1-0.4-0.3-0.5-0.6-0.6c-3.3-1.1-6.6-2.2-9.9-3.3
	c-0.5-0.2-1-0.4-1.4-0.7c-0.7-0.5-0.8-1.2-0.1-1.7c0.4-0.3,0.9-0.6,1.4-0.8C17.6,12.8,31.4,7.4,45.3,2.1c0.4-0.2,0.9-0.3,1.4-0.3
	c1.3-0.1,2.1,0.7,2.2,2c0,0.7-0.2,1.5-0.3,2.2c-1.5,7.2-2.9,14.3-4.4,21.5c-0.8,3.8-1.5,7.6-2.3,11.4c-0.5,2.4-2.5,3.2-4.5,1.7
	c-3.4-2.5-6.7-5.1-10.1-7.6C27.1,32.9,27.1,32.8,27,32.7z M19.6,35.8c0,0,0.1,0,0.1,0c0.1-0.1,0.2-0.3,0.2-0.4
	c0.1-0.3,0.1-0.7,0.2-1c0.2-1.8,0.3-3.7,0.5-5.5c0.1-0.6,0.3-1.1,0.8-1.6c5.7-5.3,11.4-10.7,17.1-16c0.5-0.5,1-1.1,1.5-1.6
	c0.1-0.2,0.1-0.4,0.2-0.6c-0.2,0-0.5-0.1-0.6,0c-0.7,0.3-1.4,0.6-2,1c-7.2,4.6-14.4,9.2-21.6,13.8c-0.2,0.1-0.2,0.3-0.2,0.5
	c0.7,2.3,1.5,4.5,2.2,6.8c0.5,1.4,0.9,2.8,1.4,4.2C19.4,35.4,19.5,35.6,19.6,35.8z"/>
</svg>
