<?xml version="1.0" encoding="utf-8"?>
<!-- Generator: Adobe Illustrator 21.0.0, SVG Export Plug-In . SVG Version: 6.00 Build 0)  -->
<svg version="1.1" id="Layer_1" xmlns="http://www.w3.org/2000/svg" xmlns:xlink="http://www.w3.org/1999/xlink" x="0px" y="0px"
	 viewBox="0 0 200 200" style="enable-background:new 0 0 200 200;" xml:space="preserve">
<style type="text/css">
	.st0{fill:#FFFFFF;}
</style>
<g>
	<path class="st0" d="M100.5,5.4c13,0,25.2,2.5,36.6,7.4c11.4,4.9,21.5,11.7,30.1,20.2s15.4,18.6,20.4,30.1
		c4.9,11.5,7.4,23.8,7.4,36.8c0,13.2-2.5,25.5-7.4,36.9s-11.7,21.5-20.4,30.1c-8.6,8.6-18.7,15.4-30.1,20.4
		c-11.4,4.9-23.7,7.4-36.6,7.4c-13.2,0-25.5-2.5-36.9-7.4s-21.5-11.7-30.1-20.4c-8.6-8.6-15.4-18.7-20.3-30.1
		c-5-11.5-7.5-23.8-7.5-36.9c0-13,2.5-25.2,7.4-36.8c5-11.5,11.8-21.6,20.4-30.1s18.7-15.3,30.1-20.2C75,7.8,87.3,5.4,100.5,5.4z
		 M138,85c2.1-1.4,4-2.9,5.5-4.5s3-3.4,4.4-5.4c-1.7,0.8-3.5,1.4-5.4,1.9c-1.8,0.5-3.8,0.8-6,1c4.3-2.5,7.2-6.1,8.7-10.8
		c-4.1,2.5-8.2,4.2-12.5,4.9c-3.7-4.1-8.3-6.1-14-6.1c-5.4,0-10,1.8-13.8,5.5s-5.7,8.2-5.7,13.7c0,2.1,0.1,3.7,0.3,4.6
		c-8.1-0.4-15.6-2.4-22.4-6.1s-12.6-8.4-17.4-14.2c-1.9,3.3-2.9,6.5-2.9,9.6c0,3.5,0.8,6.6,2.3,9.5c1.5,2.8,3.7,5.1,6.4,6.8
		c-3.1,0-6-0.8-8.7-2.3v0.3c0,4.7,1.5,8.7,4.5,12.2c3,3.5,6.7,5.7,11.2,6.7c-1,0.4-1.8,0.6-2.6,0.6c-0.8,0-1.6,0-2.6,0
		c-0.6,0-1.2,0-1.9,0c-0.7,0-1.3-0.1-1.9-0.3c1.4,3.9,3.7,7.1,7,9.6s7.1,3.9,11.3,4.1c-7,5.4-15,8.1-24.1,8.1
		c-2.1,0-3.7-0.1-4.7-0.3c4.3,2.7,8.9,4.8,14,6.4c5,1.6,10.3,2.3,15.7,2.3c8.9,0,16.8-1.6,23.7-4.9c6.9-3.3,12.7-7.6,17.4-12.9
		c4.7-5.3,8.3-11.3,10.8-17.9c2.4-6.6,3.6-13.1,3.6-19.5C138.3,86.5,138.2,85.6,138,85z"/>
</g>
</svg>
